<?xml version="1.0" standalone="no"?>
<!DOCTYPE svg PUBLIC "-//W3C//DTD SVG 20010904//EN"
 "http://www.w3.org/TR/2001/REC-SVG-20010904/DTD/svg10.dtd">
<svg version="1.0" xmlns="http://www.w3.org/2000/svg"
 width="430.000000pt" height="180.000000pt" viewBox="0 0 430.000000 180.000000"
 preserveAspectRatio="xMidYMid meet">
<metadata>
Created by potrace 1.15, written by Peter Selinger 2001-2017
</metadata>
<g transform="translate(0.000000,180.000000) scale(0.100000,-0.100000)"
fill="#FFFFFF" stroke="none">
<path d="M3160 1126 l0 -194 34 -25 c36 -28 66 -85 49 -95 -15 -10 -33 -48
-33 -71 0 -28 34 -61 63 -61 17 0 25 -8 32 -32 8 -25 18 -35 43 -42 19 -5 32
-15 32 -25 0 -33 30 -61 65 -61 19 0 37 5 41 11 3 6 14 -2 26 -21 16 -28 23
-31 51 -27 23 3 38 -1 53 -14 27 -25 53 -15 61 22 6 33 6 33 33 17 25 -16 54
-1 58 31 3 19 8 21 32 16 33 -7 60 15 60 50 0 22 3 24 29 19 24 -5 32 -1 47
21 18 27 17 29 -4 68 l-22 40 35 48 c20 26 52 61 73 77 20 17 34 33 30 37 -11
12 -55 -25 -98 -81 -38 -51 -43 -54 -74 -49 -42 8 -61 -12 -53 -59 5 -32 4
-34 -25 -32 -30 1 -40 -8 -52 -46 -4 -12 -16 -18 -36 -18 -26 0 -33 -6 -45
-34 -10 -23 -23 -36 -37 -38 -13 -2 -29 -15 -36 -31 -18 -37 -65 -35 -70 2 -3
19 9 36 55 77 79 72 53 68 -38 -6 -77 -63 -111 -73 -132 -39 -23 36 13 78 170
196 9 7 14 16 10 19 -3 4 -52 -30 -107 -75 -56 -44 -110 -81 -120 -81 -11 0
-27 11 -35 24 -24 36 -10 53 105 142 85 65 114 94 96 94 -2 0 -56 -40 -121
-90 -65 -49 -125 -90 -134 -90 -25 0 -41 20 -41 51 0 23 30 52 194 188 107 89
199 161 205 161 16 0 56 -60 75 -113 12 -31 27 -52 42 -59 42 -19 48 -1 34 94
-7 46 -16 89 -20 96 -3 7 -26 26 -51 43 l-44 29 110 0 110 0 83 55 c45 31 82
60 82 66 0 12 2 13 -100 -54 l-75 -48 -145 6 c-191 7 -267 9 -315 5 -32 -2
-62 8 -143 49 -56 28 -104 51 -107 51 -3 0 -5 -87 -5 -194z"/>
<path d="M1390 1158 c-74 -51 -75 -54 -78 -304 l-3 -224 50 0 51 0 0 203 c0
111 4 207 8 213 24 37 91 36 106 -1 3 -9 6 -106 6 -216 l0 -199 50 0 50 0 0
205 c0 192 1 206 20 225 11 11 25 20 31 20 15 0 53 -21 61 -34 4 -6 8 -102 8
-213 l0 -203 51 0 50 0 -3 224 c-3 209 -4 227 -24 252 -52 71 -142 95 -209 55
-35 -20 -35 -20 -68 -1 -45 28 -115 26 -157 -2z"/>
<path d="M350 900 l0 -270 93 0 c132 0 187 18 253 85 91 91 107 211 44 322
-58 101 -125 133 -280 133 l-110 0 0 -270z m254 136 c134 -102 66 -296 -104
-296 l-50 0 0 166 0 166 59 -4 c45 -3 68 -11 95 -32z"/>
<path d="M939 1027 c-83 -44 -127 -155 -99 -255 17 -63 83 -127 146 -140 91
-20 170 14 219 93 25 41 30 58 30 115 0 57 -5 74 -30 115 -38 62 -98 95 -170
95 -35 0 -66 -8 -96 -23z m167 -111 c27 -27 34 -42 34 -72 0 -84 -73 -140
-144 -110 -42 17 -57 38 -63 85 -10 77 32 130 106 131 25 0 42 -9 67 -34z"/>
<path d="M2045 1032 c-107 -50 -153 -175 -104 -282 26 -57 44 -77 94 -102 88
-46 199 -15 260 70 27 39 30 52 30 115 0 88 -23 139 -83 181 -54 38 -137 46
-197 18z m134 -96 c33 -18 51 -54 51 -106 0 -101 -138 -142 -190 -57 -32 51
-26 103 14 143 38 38 77 44 125 20z"/>
<path d="M2810 1028 c-24 -13 -58 -40 -74 -61 -29 -37 -31 -44 -31 -126 0 -79
3 -91 28 -128 30 -44 83 -77 137 -87 50 -9 130 17 165 54 l29 30 -34 35 -34
35 -25 -24 c-29 -26 -77 -41 -86 -26 -3 5 35 59 85 119 49 60 90 113 90 118 0
16 -43 51 -82 68 -53 22 -116 19 -168 -7z m120 -83 c0 -11 -113 -155 -121
-155 -16 0 -21 48 -9 84 15 46 53 76 96 76 19 0 34 -2 34 -5z"/>
<path d="M2400 835 l0 -205 45 0 45 0 0 110 c0 169 20 200 131 200 l50 0 -3
48 -3 47 -68 -2 c-46 -1 -80 -8 -107 -22 l-39 -20 -20 24 c-10 14 -22 25 -25
25 -3 0 -6 -92 -6 -205z"/>
</g>
</svg>
